<svg width="46" height="46" viewBox="0 0 46 46" fill="none" xmlns="http://www.w3.org/2000/svg">
<rect width="46" height="46" rx="8" fill="white"/>
<path d="M15.5625 18.8906H30.1875C30.4688 18.8906 30.75 18.6445 30.75 18.3281V16.9219C30.75 16.6406 30.4688 16.3594 30.1875 16.3594H15.5625C15.2461 16.3594 15 16.6406 15 16.9219V18.3281C15 18.6445 15.2461 18.8906 15.5625 18.8906ZM15.5625 24.5156H30.1875C30.4688 24.5156 30.75 24.2695 30.75 23.9531V22.5469C30.75 22.2656 30.4688 21.9844 30.1875 21.9844H15.5625C15.2461 21.9844 15 22.2656 15 22.5469V23.9531C15 24.2695 15.2461 24.5156 15.5625 24.5156ZM15.5625 30.1406H30.1875C30.4688 30.1406 30.75 29.8945 30.75 29.5781V28.1719C30.75 27.8906 30.4688 27.6094 30.1875 27.6094H15.5625C15.2461 27.6094 15 27.8906 15 28.1719V29.5781C15 29.8945 15.2461 30.1406 15.5625 30.1406Z" fill="#2C2C2C"/>
</svg>
